<?xml version="1.0" encoding="UTF-8"?>
<svg version="1.1" xmlns="http://www.w3.org/2000/svg" width="528" height="528">
<path d="M0 0 C174.24 0 348.48 0 528 0 C528 174.24 528 348.48 528 528 C353.76 528 179.52 528 0 528 C0 353.76 0 179.52 0 0 Z " fill="#FBFCFA" transform="translate(0,0)"/>
<path d="M0 0 C1.32 0.33 2.64 0.66 4 1 C3.42334609 5.7871428 1.35917004 9.25128824 -1.0625 13.3125 C-1.62807617 14.28026367 -1.62807617 14.28026367 -2.20507812 15.26757812 C-3.13037493 16.84878152 -4.06432681 18.4249146 -5 20 C-6.65 20 -8.3 20 -10 20 C-8.56347895 15.08558588 -6.45840385 10.99761642 -3.875 6.625 C-3.50246094 5.98433594 -3.12992188 5.34367188 -2.74609375 4.68359375 C-1.83565998 3.11951523 -0.91851809 1.55934466 0 0 Z " fill="#F1F6EE" transform="translate(253,153)"/>
</svg>
